<svg id="Layer_1" data-name="Layer 1" xmlns="http://www.w3.org/2000/svg" viewBox="0 0 49.8 56"><defs><style>.cls-1{fill:#164194;}.cls-2{fill:#feeb17;}.cls-3{fill:#1e1e1c;}</style></defs><rect class="cls-1" y="5.2" width="49.8" height="33.2"/><polygon class="cls-2" points="23.9 12.5 24.9 11.7 26 12.5 25.6 11.2 26.6 10.5 25.3 10.5 24.9 9.2 24.5 10.5 23.2 10.5 24.3 11.2 23.9 12.5"/><polygon class="cls-2" points="18.4 13.9 19.5 13.2 20.5 13.9 20.1 12.7 21.2 11.9 19.9 11.9 19.5 10.7 19.1 11.9 17.7 11.9 18.8 12.7 18.4 13.9"/><polygon class="cls-2" points="15.5 14.7 15.1 15.9 13.8 15.9 14.8 16.7 14.4 17.9 15.5 17.2 16.5 17.9 16.1 16.7 17.2 15.9 15.9 15.9 15.5 14.7"/><polygon class="cls-2" points="14 22.6 15.1 23.4 14.7 22.1 15.7 21.3 14.4 21.3 14 20.1 13.6 21.3 12.3 21.3 13.4 22.1 13 23.4 14 22.6"/><polygon class="cls-2" points="15.9 26.8 15.5 25.5 15.1 26.8 13.8 26.8 14.8 27.6 14.4 28.8 15.5 28 16.5 28.8 16.1 27.6 17.2 26.8 15.9 26.8"/><polygon class="cls-2" points="19.9 30.8 19.5 29.5 19.1 30.8 17.8 30.8 18.8 31.6 18.4 32.8 19.5 32 20.5 32.8 20.1 31.6 21.2 30.8 19.9 30.8"/><polygon class="cls-2" points="25.3 32.2 24.9 31 24.5 32.2 23.2 32.2 24.3 33 23.9 34.2 24.9 33.5 26 34.2 25.6 33 26.6 32.2 25.3 32.2"/><polygon class="cls-2" points="30.7 30.8 30.3 29.5 29.9 30.8 28.6 30.8 29.7 31.6 29.3 32.8 30.3 32 31.4 32.8 31 31.6 32.1 30.8 30.7 30.8"/><polygon class="cls-2" points="34.7 26.8 34.3 25.5 33.9 26.8 32.6 26.8 33.7 27.6 33.3 28.8 34.3 28 35.4 28.8 35 27.6 36 26.8 34.7 26.8"/><polygon class="cls-2" points="37.5 21.3 36.2 21.3 35.8 20.1 35.4 21.3 34.1 21.3 35.1 22.1 34.7 23.3 35.8 22.6 36.8 23.3 36.4 22.1 37.5 21.3"/><polygon class="cls-2" points="33.3 17.9 34.3 17.1 35.4 17.9 35 16.7 36 15.9 34.7 15.9 34.3 14.6 33.9 15.9 32.6 15.9 33.7 16.7 33.3 17.9"/><polygon class="cls-2" points="30.4 10.7 30 11.9 28.6 11.9 29.7 12.7 29.3 13.9 30.4 13.2 31.4 13.9 31 12.7 32.1 11.9 30.8 11.9 30.4 10.7"/><polygon class="cls-2" points="18.4 13.9 19.5 13.2 20.5 13.9 20.1 12.7 21.2 11.9 19.9 11.9 19.5 10.7 19.1 11.9 17.8 11.9 18.8 12.7 18.4 13.9"/><polygon class="cls-2" points="15.5 14.7 15.1 15.9 13.8 15.9 14.8 16.7 14.4 17.9 15.5 17.1 16.5 17.9 16.1 16.7 17.2 15.9 15.9 15.9 15.5 14.7"/><polygon class="cls-2" points="14 22.6 15.1 23.3 14.7 22.1 15.8 21.3 14.4 21.3 14 20.1 13.6 21.3 12.3 21.3 13.4 22.1 13 23.3 14 22.6"/><polygon class="cls-2" points="15.9 26.8 15.5 25.5 15.1 26.8 13.8 26.8 14.8 27.6 14.4 28.8 15.5 28 16.5 28.8 16.1 27.6 17.2 26.8 15.9 26.8"/><polygon class="cls-2" points="19.9 30.8 19.5 29.5 19.1 30.8 17.8 30.8 18.8 31.5 18.4 32.8 19.5 32 20.5 32.8 20.1 31.5 21.2 30.8 19.9 30.8"/><path class="cls-3" d="M11.5,45.2V42.3h2v.5H12.1v.7h1.2V44H12.1v1.2Z"/><path class="cls-3" d="M15.3,45.2v-.3l-.3.3a.85.85,0,0,1-.8,0c-.1-.1-.2-.1-.2-.3a.75.75,0,0,1-.1-.5V43.1h.6v1.5c0,.1.1.1.1.2s.1.1.2.1a.37.37,0,0,0,.3-.1c.1,0,.1-.1.2-.2s.1-.4,0-.6v-.9h.6v2.1Z"/><path class="cls-3" d="M18.3,45.2h-.5V43.7c0-.1-.1-.1-.1-.2s-.1-.1-.2-.1a.37.37,0,0,0-.3.1c-.1,0-.1.1-.2.2s-.1.3,0,.5v.9h-.6V43h.5v.3a1,1,0,0,1,1-.3.22.22,0,0,1,.2.2c.1.1.1.1.1.2v.4Z"/><path class="cls-3" d="M20.8,45.2h-.5v-.3l-.3.3c-.1.1-.2.1-.4.1A.71.71,0,0,1,19,45a1.22,1.22,0,0,1,0-1.6.86.86,0,0,1,.6-.3.71.71,0,0,1,.6.3v-1h.6Zm-1.5-1.1a.9.9,0,0,0,.1.5.52.52,0,0,0,.4.2c.1,0,.2-.1.3-.2a1.3,1.3,0,0,0,0-1c-.1-.1-.2-.2-.3-.2s-.3.1-.3.2A.55.55,0,0,0,19.3,44.1Z"/><path class="cls-3" d="M22.5,44.5l.6.1c-.1.2-.2.3-.3.5a1.42,1.42,0,0,1-.6.2.91.91,0,0,1-.8-.4,1.85,1.85,0,0,1-.2-.7,1.14,1.14,0,0,1,.3-.8.91.91,0,0,1,.7-.3.78.78,0,0,1,.7.3,1.61,1.61,0,0,1,.3.9H21.8a.6.6,0,0,0,.1.4.37.37,0,0,0,.3.1c.1,0,.2,0,.2-.1A.35.35,0,0,0,22.5,44.5Zm0-.5a.6.6,0,0,0-.1-.4.5.5,0,0,0-.6,0c-.1.1-.1.2-.1.4Z"/><path class="cls-3" d="M25.4,45.2h-.5v-.3l-.3.3a.8.8,0,0,1-1-.2,1.53,1.53,0,0,1,0-1.6.86.86,0,0,1,.6-.3.71.71,0,0,1,.6.3v-1h.6Zm-1.5-1.1a.9.9,0,0,0,.1.5.52.52,0,0,0,.4.2c.1,0,.2-.1.3-.2a1.3,1.3,0,0,0,0-1,.47.47,0,0,0-.6-.1l-.1.1C24,43.8,23.9,43.9,23.9,44.1Z"/><path class="cls-3" d="M27,45.2V42.3h.6v1a.75.75,0,0,1,1.2,0,.78.78,0,0,1,.2.8,1.14,1.14,0,0,1-.3.8.86.86,0,0,1-.6.3.76.76,0,0,1-.4-.1l-.3-.3v.3Zm.5-1.1a.9.9,0,0,0,.1.5.52.52,0,0,0,.4.2c.1,0,.2-.1.3-.2a1.3,1.3,0,0,0,0-1c-.1-.1-.2-.2-.3-.2s-.3.1-.3.2S27.5,43.9,27.5,44.1Z"/><path class="cls-3" d="M29.2,43.1h.6l.5,1.5.5-1.5h.6l-.7,2-.1.4c0,.1-.1.2-.1.3s-.1.1-.2.2-.1.1-.2.1h-.6v-.4h.2a.35.35,0,0,0,.4-.4Z"/><path class="cls-3" d="M33.7,43.1v.4h-.4v1.2h.1c.1,0,.2,0,.2-.1V45a.6.6,0,0,1-.4.1h-.3c-.1,0-.1-.1-.2-.1s-.1-.1-.1-.2V43.5h-.3v-.4h.3v-.4l.6-.3v.7Z"/><path class="cls-3" d="M34.6,42.3v1.1a.75.75,0,0,1,1-.2.22.22,0,0,1,.2.2.31.31,0,0,1,.1.2v1.6h-.6V43.7a.1.1,0,0,0-.1-.1c-.1,0-.1-.1-.2-.1s-.2,0-.2.1-.1.1-.2.2-.1.3,0,.4v1H34V42.3Z"/><path class="cls-3" d="M37.7,44.5l.6.1c-.1.2-.2.3-.3.5a1.42,1.42,0,0,1-.6.2.91.91,0,0,1-.8-.4,1.85,1.85,0,0,1-.2-.7,1.14,1.14,0,0,1,.3-.8.91.91,0,0,1,.7-.3.78.78,0,0,1,.7.3,1.61,1.61,0,0,1,.3.9H37a.6.6,0,0,0,.1.4.37.37,0,0,0,.3.1c.1,0,.2,0,.2-.1A.35.35,0,0,0,37.7,44.5Zm0-.5a.6.6,0,0,0-.1-.4.5.5,0,0,0-.6,0c-.1.1-.1.2-.1.4Z"/><path class="cls-3" d="M9.8,50V47.1H12v.5H10.4v.6h1.5v.5H10.4v.8H12V50Z"/><path class="cls-3" d="M13.8,50v-.3l-.3.3h-.4a.6.6,0,0,1-.4-.1c-.1-.1-.2-.1-.2-.3a.75.75,0,0,1-.1-.5V47.8H13v1.5c0,.1.1.1.1.2s.1.1.2.1a.37.37,0,0,0,.3-.1c.1,0,.1-.1.2-.2s.1-.4,0-.6v-.9h.6V50Z"/><path class="cls-3" d="M15.4,50h-.6V47.9h.5v.3c.1-.1.1-.2.2-.3a.35.35,0,0,0,.2-.1.6.6,0,0,1,.4.1l-.2.5a.37.37,0,0,0-.3-.1c-.1,0-.1,0-.2.1s-.1.1-.1.2-.1.5,0,.7Z"/><path class="cls-3" d="M16.3,48.9a.75.75,0,0,1,.1-.5.78.78,0,0,1,.4-.4,1.27,1.27,0,0,1,.6-.1,1,1,0,0,1,1.1,1V49a1.14,1.14,0,0,1-.3.8,1.88,1.88,0,0,1-.8.2,1.27,1.27,0,0,1-.6-.1.78.78,0,0,1-.4-.4A1.27,1.27,0,0,1,16.3,48.9Zm.6,0a.9.9,0,0,0,.1.5.52.52,0,0,0,.4.2.76.76,0,0,0,.4-.2.44.44,0,0,0,.1-.5.9.9,0,0,0-.1-.5.52.52,0,0,0-.4-.2.76.76,0,0,0-.4.2,1.09,1.09,0,0,0-.1.5Z"/><path class="cls-3" d="M18.8,47.9h.5v.3a.84.84,0,0,1,.7-.4.71.71,0,0,1,.6.3,1.22,1.22,0,0,1,0,1.6.6.6,0,0,1-.6.3.37.37,0,0,1-.3-.1c-.1-.1-.2-.1-.3-.2v1h-.6Zm.6,1a.75.75,0,0,0,.1.5c.1.1.2.2.3.2s.2-.1.3-.2a.75.75,0,0,0,.1-.5.9.9,0,0,0-.1-.5c-.1-.1-.2-.2-.3-.2s-.3.1-.3.2a.9.9,0,0,0-.1.5Z"/><path class="cls-3" d="M22.5,49.3l.6.1c-.1.2-.2.3-.3.5a1.27,1.27,0,0,1-.6.1.91.91,0,0,1-.8-.4,1.85,1.85,0,0,1-.2-.7,1.14,1.14,0,0,1,.3-.8.91.91,0,0,1,.7-.3.78.78,0,0,1,.7.3,1.61,1.61,0,0,1,.3.9H21.8a.6.6,0,0,0,.1.4.37.37,0,0,0,.3.1c.1,0,.2,0,.2-.1C22.4,49.5,22.5,49.4,22.5,49.3Zm0-.5a.6.6,0,0,0-.1-.4c-.1-.2-.4-.2-.6,0h0c-.1.1-.1.2-.1.4Z"/><path class="cls-3" d="M23.9,48.5l-.5-.1c0-.2.1-.3.3-.4a.66.66,0,0,1,.6-.1,1.27,1.27,0,0,1,.6.1c.1,0,.2.1.3.2a.9.9,0,0,1,.1.5v1c0,.1.1.2.1.3h-.6a.31.31,0,0,0-.1-.2v-.1c-.1.1-.2.2-.3.2s-.2.1-.3.1a.76.76,0,0,1-.5-.2.75.75,0,0,1-.1-.8c.1-.1.1-.2.2-.2a.6.6,0,0,1,.4-.1,4.33,4.33,0,0,0,.5-.1v-.1c0-.1,0-.2-.1-.2a.37.37,0,0,0-.3-.1c-.1,0-.2.2-.3.3Zm.8.5c-.1,0-.2.1-.3.1a.37.37,0,0,0-.3.1c-.1,0-.1.1-.1.2s0,.1.1.2.1.1.2.1a.37.37,0,0,0,.3-.1c.1,0,.1-.1.1-.2V49Z"/><path class="cls-3" d="M27.6,50H27V48.5c0-.1-.1-.1-.1-.2s-.1-.1-.2-.1a.37.37,0,0,0-.3.1c-.1,0-.1.1-.2.2s-.1.3,0,.5v1h-.6V47.9h.5v.3a1,1,0,0,1,.7-.4.37.37,0,0,1,.3.1.22.22,0,0,1,.2.2c.1.1.1.1.1.2v.4Z"/><path class="cls-3" d="M29.2,47.1h.6v2.1c0,.1.1.2.2.3a.85.85,0,0,0,.8,0l.2-.2V47.2h.6v2.2a.76.76,0,0,1-.2.4c-.1.1-.2.2-.3.2h-.6a1.27,1.27,0,0,1-.6-.1c-.1-.1-.2-.1-.3-.2s-.1-.2-.2-.3-.1-.5-.1-.7Z"/><path class="cls-3" d="M34,50h-.6V48.5c0-.1-.1-.1-.1-.2s-.1-.1-.2-.1a.37.37,0,0,0-.3.1l-.2.2V50H32V47.9h.5v.3a1,1,0,0,1,.7-.4.37.37,0,0,1,.3.1.22.22,0,0,1,.2.2c.1.1.1.1.1.2v.4Z"/><path class="cls-3" d="M34.6,47.6v-.5h.6v.5Zm0,2.4V47.9h.6V50Z"/><path class="cls-3" d="M35.5,48.9a.75.75,0,0,1,.1-.5A.78.78,0,0,1,36,48a1.27,1.27,0,0,1,.6-.1,1,1,0,0,1,1.1,1V49a1,1,0,0,1-1.1,1.1A1.27,1.27,0,0,1,36,50a.78.78,0,0,1-.4-.4C35.6,49.3,35.5,49.1,35.5,48.9Zm.6,0a.9.9,0,0,0,.1.5.48.48,0,0,0,.7,0h0a.44.44,0,0,0,.1-.5.9.9,0,0,0-.1-.5.48.48,0,0,0-.7,0h0a1.09,1.09,0,0,0-.1.5Z"/><path class="cls-3" d="M40,50h-.6V48.5c0-.1-.1-.1-.1-.2s-.1-.1-.2-.1a.37.37,0,0,0-.3.1l-.2.2V50H38V47.9h.5v.3a1,1,0,0,1,.7-.4.37.37,0,0,1,.3.1.22.22,0,0,1,.2.2c.1.1.1.1.1.2v.4Z"/></svg>