<?xml version="1.0" encoding="UTF-8" standalone="no"?>
<svg
   xmlns:dc="http://purl.org/dc/elements/1.1/"
   xmlns:cc="http://creativecommons.org/ns#"
   xmlns:rdf="http://www.w3.org/1999/02/22-rdf-syntax-ns#"
   xmlns:svg="http://www.w3.org/2000/svg"
   xmlns="http://www.w3.org/2000/svg"
   xmlns:sodipodi="http://sodipodi.sourceforge.net/DTD/sodipodi-0.dtd"
   xmlns:inkscape="http://www.inkscape.org/namespaces/inkscape"
   viewBox="0 0 1285.9777 244.35418"
   version="1.1"
   id="svg102"
   sodipodi:docname="logo.svg"
   width="1285.9777"
   height="244.35417"
   inkscape:version="0.92.3 (2405546, 2018-03-11)">
  <metadata
     id="metadata106">
    <rdf:RDF>
      <cc:Work
         rdf:about="">
        <dc:format>image/svg+xml</dc:format>
        <dc:type
           rdf:resource="http://purl.org/dc/dcmitype/StillImage" />
        <dc:title>Logo PC bien</dc:title>
      </cc:Work>
    </rdf:RDF>
  </metadata>
  <sodipodi:namedview
     pagecolor="#ffffff"
     bordercolor="#666666"
     borderopacity="1"
     objecttolerance="10"
     gridtolerance="10"
     guidetolerance="10"
     inkscape:pageopacity="0"
     inkscape:pageshadow="2"
     inkscape:window-width="1920"
     inkscape:window-height="1055"
     id="namedview104"
     showgrid="false"
     inkscape:zoom="0.45128711"
     inkscape:cx="1382.7118"
     inkscape:cy="237.41015"
     inkscape:window-x="1920"
     inkscape:window-y="0"
     inkscape:window-maximized="1"
     inkscape:current-layer="svg102" />
  <defs
     id="defs4">
    <style
       id="style2">.cls-1{fill:#990020;}.cls-2{fill:#574d50;}.cls-3{fill:#ffb80f;}.cls-4{fill:#111;}</style>
    <style
       id="style238">.cls-1{fill:#990020;}</style>
  </defs>
  <title
     id="title6">Logo PC bien</title>
  <g
     id="Capa_2"
     data-name="Capa 2">
    <g
       id="Capa_1-2"
       data-name="Capa 1">
      <circle
         class="cls-1"
         cx="106.19"
         cy="106.17"
         r="46.689999"
         id="circle8"
         style="fill:#990020" />
      <path
         class="cls-2"
         d="m 37.36,209.91 a 58.71,58.71 0 0 0 6.35,-0.23 v 8.39 c -1.34,0.12 -3,0.23 -5.07,0.23 v 0.12 c 3.32,1.4 5.54,3.73 5.54,8.57 0,6.7 -4.9,8.92 -11,8.92 H 13.35 v -9.21 h 18.7 c 3.79,0 4.78,-1.69 4.78,-3.56 0,-3 -2.56,-4 -6.47,-4 h -17 v -9.21 z"
         id="path10"
         inkscape:connector-curvature="0"
         style="fill:#574d50" />
      <path
         class="cls-2"
         d="m 25,170.8 c -3.5,0 -4.78,1.46 -4.78,3.5 0,2.74 2,3.79 4.25,3.79 h 19.24 v 9.21 H 25 c -3.85,0 -4.78,1.69 -4.78,3.21 0,3 2.62,4.08 6.47,4.08 h 17 v 9.21 h -24 a 58.71,58.71 0 0 0 -6.35,0.23 v -8.39 c 1.34,-0.12 3,-0.23 5.07,-0.23 v -0.12 c -3.32,-1.4 -5.54,-3.73 -5.54,-8.57 0,-4.37 2,-6.59 5.07,-7.87 -2.86,-1.34 -5.07,-3.5 -5.07,-8.33 0,-6.7 4.9,-8.92 11,-8.92 h 19.84 v 9.21 z"
         id="path12"
         inkscape:connector-curvature="0"
         style="fill:#574d50" />
      <path
         class="cls-2"
         d="m 0,155.51 v -9.21 h 17.83 v -0.12 c -3.38,-1 -5,-4.43 -5,-7.75 0,-6.7 4.9,-8.92 11,-8.92 h 19.88 v 9.21 H 25 c -3.79,0 -4.78,1.69 -4.78,3.56 0,3 2.56,4 6.47,4 h 17 v 9.21 z"
         id="path14"
         inkscape:connector-curvature="0"
         style="fill:#574d50" />
      <path
         class="cls-3"
         d="M 106.19,0 A 106.19,106.19 0 0 0 0,106.19 v 7.54 h 43.72 v -7.54 a 62.5,62.5 0 1 1 15.78,41.48 v 88.23 h 43.76 v -23.56 c 1,0 2,0 2.93,0 A 106.19,106.19 0 0 0 106.19,0 Z"
         id="path16"
         inkscape:connector-curvature="0"
         style="fill:#ffb80f" />
      <path
         class="cls-4"
         d="m 243.19,217 h 4.44 v 12.74 c 0,1.89 0.7,3.06 2.49,3.06 1.79,0 2.49,-1.16 2.49,-3.06 V 217 H 257 v 12 c 0,4.68 -2.68,7.17 -6.93,7.17 -4.25,0 -6.93,-2.49 -6.93,-7.17 z"
         id="path18"
         inkscape:connector-curvature="0"
         style="fill:#111111" />
      <path
         class="cls-4"
         d="m 260.34,217 h 5.19 l 5.47,13.11 h 0.05 V 217 H 275 v 18.88 h -5.25 l -5.44,-13.66 h -0.05 v 13.66 h -3.9 z"
         id="path20"
         inkscape:connector-curvature="0"
         style="fill:#111111" />
      <path
         class="cls-4"
         d="m 278.46,217 h 4.44 v 18.88 h -4.44 z"
         id="path22"
         inkscape:connector-curvature="0"
         style="fill:#111111" />
      <path
         class="cls-4"
         d="m 284.9,217 h 4.76 l 3.34,13.78 v 0 L 296.45,217 H 301 l -5.71,18.88 h -4.76 z"
         id="path24"
         inkscape:connector-curvature="0"
         style="fill:#111111" />
      <path
         class="cls-4"
         d="m 303,217 h 10.9 v 3.3 h -6.63 v 4.22 h 6.3 v 3.3 h -6.3 v 4.76 h 7 v 3.3 H 303 Z"
         id="path26"
         inkscape:connector-curvature="0"
         style="fill:#111111" />
      <path
         class="cls-4"
         d="m 317,217 h 7 c 3.11,0 5.76,1.38 5.76,4.87 A 4.42,4.42 0 0 1 326,226.5 v 0.05 c 1.38,0.16 1.92,0.92 2.62,3.17 l 1.95,6.17 h -4.65 l -1.46,-5.06 c -0.73,-2.57 -1.33,-2.57 -2.95,-2.57 v 7.63 H 317 Z m 4.27,8.06 h 1.38 a 2.4,2.4 0 0 0 2.6,-2.49 c 0,-0.78 -0.24,-2.38 -2.62,-2.38 h -1.35 z"
         id="path28"
         inkscape:connector-curvature="0"
         style="fill:#111111" />
      <path
         class="cls-4"
         d="m 343.36,220.85 a 9,9 0 0 0 -3.73,-1 c -1.43,0 -2.52,0.65 -2.52,2.06 0,3.44 7.44,1.84 7.44,8.55 0,3.57 -2.84,5.73 -6.6,5.73 a 18.16,18.16 0 0 1 -5.09,-0.78 l 0.24,-3.68 a 10.67,10.67 0 0 0 4.14,1.16 c 1.41,0 2.76,-0.7 2.76,-2.25 0,-3.65 -7.44,-1.87 -7.44,-8.6 0,-0.57 0.22,-5.38 6.55,-5.38 a 18.49,18.49 0 0 1 4.44,0.65 z"
         id="path30"
         inkscape:connector-curvature="0"
         style="fill:#111111" />
      <path
         class="cls-4"
         d="m 347.6,217 h 4.4 v 18.88 h -4.4 z"
         id="path32"
         inkscape:connector-curvature="0"
         style="fill:#111111" />
      <path
         class="cls-4"
         d="m 358.37,220.42 h -4.11 V 217 h 12.66 v 3.41 h -4.12 v 15.47 h -4.44 z"
         id="path34"
         inkscape:connector-curvature="0"
         style="fill:#111111" />
      <path
         class="cls-4"
         d="m 377.52,231.67 h -5.92 l -1.3,4.22 H 366 L 372.3,217 h 4.87 l 6.06,18.88 h -4.54 z m -2.81,-11 h -0.05 l -2.25,7.84 h 4.25 z"
         id="path36"
         inkscape:connector-curvature="0"
         style="fill:#111111" />
      <path
         class="cls-4"
         d="m 395.46,220.85 a 9,9 0 0 0 -3.73,-1 c -1.43,0 -2.52,0.65 -2.52,2.06 0,3.44 7.44,1.84 7.44,8.55 0,3.57 -2.84,5.73 -6.6,5.73 a 18.16,18.16 0 0 1 -5.09,-0.78 l 0.24,-3.68 a 10.67,10.67 0 0 0 4.14,1.16 c 1.41,0 2.76,-0.7 2.76,-2.25 0,-3.65 -7.44,-1.87 -7.44,-8.6 0,-0.57 0.22,-5.38 6.55,-5.38 a 18.49,18.49 0 0 1 4.44,0.65 z"
         id="path38"
         inkscape:connector-curvature="0"
         style="fill:#111111" />
      <path
         class="cls-4"
         d="m 428.75,215 q 2.18,0.15 2.52,0.15 l 4.19,-0.15 0.12,0.12 -0.09,0.78 -0.18,0.13 -0.73,0.07 a 5.47,5.47 0 0 0 -0.9,0.15 1,1 0 0 0 -0.5,0.32 2,2 0 0 0 -0.33,0.7 q -0.14,0.47 -0.38,1.72 l -2.07,11.92 Q 430,233.54 430,234 a 0.69,0.69 0 0 0 0.25,0.61 2.19,2.19 0 0 0 1,0.24 l 1.39,0.13 0.1,0.12 -0.13,0.75 -0.15,0.09 q -2.32,-0.09 -4.54,-0.09 -2.22,0 -4.43,0.09 l -0.12,-0.12 0.09,-0.73 0.12,-0.09 q 1.63,-0.24 2,-0.33 0.37,-0.09 0.56,-0.87 0.23,-0.77 0.7,-3.6 l 1.13,-6.57 0.84,-5.49 q -6.23,10 -9.4,15.65 l -1.45,2.61 h -0.81 l -1.89,-7.79 -2.38,-9.4 -2.25,9.06 a 48.57,48.57 0 0 0 -1.2,5.66 0.9,0.9 0 0 0 0.26,0.75 6.23,6.23 0 0 0 2.12,0.3 l 0.13,0.12 -0.1,0.73 -0.12,0.12 q -1.54,-0.09 -3.21,-0.09 -1.67,0 -3.15,0.09 l -0.12,-0.12 0.06,-0.73 0.15,-0.12 a 3.29,3.29 0 0 0 1.68,-0.44 10.53,10.53 0 0 0 0.87,-2.39 q 0.62,-2.11 1.55,-5.6 l 1.72,-6.48 a 17.39,17.39 0 0 0 0.61,-2.89 0.87,0.87 0 0 0 -0.81,-0.95 18.15,18.15 0 0 0 -2,-0.19 l -0.09,-0.16 0.09,-0.75 0.12,-0.12 q 2.28,0.09 3.46,0.09 1.18,0 3.06,-0.09 l 1.6,6.63 2.25,8.93 1.51,-2.46 5.76,-9.65 z"
         id="path40"
         inkscape:connector-curvature="0"
         style="fill:#111111" />
      <path
         class="cls-4"
         d="m 435.59,225.82 -0.3,-0.52 v -0.19 a 39.53,39.53 0 0 1 4.06,-2.87 5.08,5.08 0 0 1 2.27,-0.84 0.81,0.81 0 0 1 0.64,0.32 1.21,1.21 0 0 1 0.27,0.81 7.57,7.57 0 0 1 -0.23,1.64 q -0.23,1 -1,3.76 a 40.49,40.49 0 0 0 -1.29,5.52 0.56,0.56 0 0 0 0.13,0.36 0.37,0.37 0 0 0 0.29,0.16 7.39,7.39 0 0 0 2.37,-1.38 h 0.2 l 0.33,0.59 -0.06,0.19 q -1,0.74 -2.47,1.7 a 12.89,12.89 0 0 1 -2.05,1.19 3.06,3.06 0 0 1 -1.07,0.24 1,1 0 0 1 -0.86,-0.43 2,2 0 0 1 -0.28,-1.11 8.1,8.1 0 0 1 0.17,-1.55 q 0.17,-0.87 0.73,-3 a 39.25,39.25 0 0 0 1.24,-5.6 q 0,-0.41 -0.34,-0.41 a 7.17,7.17 0 0 0 -2.58,1.42 z m 4.65,-9 a 2.28,2.28 0 0 1 0.58,-1.57 1.89,1.89 0 0 1 1.48,-0.65 1.6,1.6 0 0 1 1.21,0.47 1.68,1.68 0 0 1 0.44,1.21 2.72,2.72 0 0 1 -0.53,1.64 1.74,1.74 0 0 1 -1.5,0.73 1.52,1.52 0 0 1 -1.3,-0.52 2.1,2.1 0 0 1 -0.38,-1.28 z"
         id="path42"
         inkscape:connector-curvature="0"
         style="fill:#111111" />
      <path
         class="cls-4"
         d="m 448.83,235.53 a 2,2 0 0 1 -0.8,-1.5 1.33,1.33 0 0 1 0.06,-0.38 0.81,0.81 0 0 1 0.1,-0.25 1.23,1.23 0 0 1 0.24,-0.17 26.79,26.79 0 0 0 2.43,-1.58 h -0.56 a 4.71,4.71 0 0 1 -2.92,-0.9 3.38,3.38 0 0 1 -1.2,-2.89 6.11,6.11 0 0 1 0.3,-1.9 6,6 0 0 1 0.8,-1.62 4.66,4.66 0 0 1 1,-1.09 8.76,8.76 0 0 1 1.59,-0.84 q 1.07,-0.47 1.9,-0.73 a 4.8,4.8 0 0 1 1.44,-0.27 6.92,6.92 0 0 1 1,0.07 5.3,5.3 0 0 1 0.67,0.13 q 0.2,0.06 0.73,0.28 l 0.44,0.16 a 6.25,6.25 0 0 0 0.9,0.07 h 1.28 q 0.38,0 1.3,-0.06 h 0.84 l 0.16,0.24 -0.34,1.55 a 9.21,9.21 0 0 0 -1.14,-0.1 h -1 -0.5 a 4.2,4.2 0 0 1 0.34,1.72 5.9,5.9 0 0 1 -0.38,2.06 6.44,6.44 0 0 1 -0.88,1.68 4,4 0 0 1 -1.21,1.07 14.56,14.56 0 0 1 -1.94,0.88 12.37,12.37 0 0 0 -1.23,0.54 2.13,2.13 0 0 0 -0.64,0.51 0.87,0.87 0 0 0 -0.24,0.52 1.12,1.12 0 0 0 0.27,0.65 10,10 0 0 0 1.78,1.39 15.69,15.69 0 0 1 2.86,2.36 3.15,3.15 0 0 1 0.72,2.08 4.25,4.25 0 0 1 -2.25,3.73 10.05,10.05 0 0 1 -5.43,1.41 11,11 0 0 1 -3.4,-0.48 4.39,4.39 0 0 1 -2.19,-1.4 3.16,3.16 0 0 1 -0.71,-2 3.75,3.75 0 0 1 1.13,-2.52 8.9,8.9 0 0 1 3.78,-2.12 z m 0.65,0.58 -1.32,0.65 a 7.88,7.88 0 0 0 -1.07,0.65 3.84,3.84 0 0 0 -0.74,0.73 3.07,3.07 0 0 0 -0.49,0.91 3.16,3.16 0 0 0 -0.16,1 2.65,2.65 0 0 0 0.53,1.69 3.54,3.54 0 0 0 1.51,1.07 5.76,5.76 0 0 0 2.16,0.39 4.5,4.5 0 0 0 2.89,-0.85 2.55,2.55 0 0 0 1.07,-2.05 2.11,2.11 0 0 0 -0.53,-1.35 25,25 0 0 0 -3.85,-2.84 z m -0.16,-8.28 a 3,3 0 0 0 0.63,2.15 2.16,2.16 0 0 0 1.61,0.64 2.25,2.25 0 0 0 1.7,-0.72 4.66,4.66 0 0 0 1,-2 8.94,8.94 0 0 0 0.36,-2.45 2.79,2.79 0 0 0 -0.65,-2.1 2.24,2.24 0 0 0 -1.58,-0.61 2.5,2.5 0 0 0 -2.29,1.56 7.51,7.51 0 0 0 -0.78,3.53 z"
         id="path44"
         inkscape:connector-curvature="0"
         style="fill:#111111" />
      <path
         class="cls-4"
         d="m 460.7,225.27 -0.24,-0.56 v -0.21 a 40.11,40.11 0 0 1 3.46,-2.32 4.84,4.84 0 0 1 2.21,-0.79 q 1,0 1,1.17 A 7.37,7.37 0 0 1 467,224 q -0.17,0.84 -0.66,2.71 l -1.24,5 a 8.18,8.18 0 0 0 -0.22,1.47 q 0,0.62 0.52,0.62 a 2,2 0 0 0 1,-0.42 10.3,10.3 0 0 0 1.89,-2 16.24,16.24 0 0 0 1.79,-2.91 21.2,21.2 0 0 0 1.41,-3.93 14.51,14.51 0 0 0 0.4,-2.34 14.35,14.35 0 0 0 3.23,-0.59 l 0.25,0.27 q -0.9,2.9 -1.83,6.62 a 26.62,26.62 0 0 0 -0.93,4.84 q 0,0.55 0.43,0.55 a 1,1 0 0 0 0.53,-0.17 q 0.28,-0.17 0.7,-0.48 l 0.77,-0.55 h 0.18 l 0.33,0.58 v 0.19 a 39.3,39.3 0 0 1 -3.85,2.69 3.23,3.23 0 0 1 -1.42,0.41 0.84,0.84 0 0 1 -0.71,-0.33 1.48,1.48 0 0 1 -0.25,-0.91 19.94,19.94 0 0 1 0.76,-3.79 l 0.58,-2.25 a 18.86,18.86 0 0 1 -3.86,5.08 q -2.44,2.31 -3.92,2.31 a 1.33,1.33 0 0 1 -1,-0.44 1.91,1.91 0 0 1 -0.4,-1.32 6.5,6.5 0 0 1 0.13,-1.23 q 0.13,-0.65 0.66,-2.65 a 32.93,32.93 0 0 0 1.27,-6.07 q 0,-0.62 -0.43,-0.62 a 1.12,1.12 0 0 0 -0.42,0.1 q -0.24,0.1 -1.61,1 z"
         id="path46"
         inkscape:connector-curvature="0"
         style="fill:#111111" />
      <path
         class="cls-4"
         d="m 488,232.49 0.34,0.61 v 0.18 a 24.73,24.73 0 0 1 -4.21,2.54 7.35,7.35 0 0 1 -2.84,0.69 4.59,4.59 0 0 1 -2,-0.46 2.76,2.76 0 0 1 -1.35,-1.33 4.24,4.24 0 0 1 -0.41,-1.83 18,18 0 0 1 0.61,-4.1 10,10 0 0 1 1.56,-3.72 10.46,10.46 0 0 1 3.07,-2.43 7.69,7.69 0 0 1 3.65,-1.21 3.24,3.24 0 0 1 2.1,0.66 2.29,2.29 0 0 1 0.81,1.89 4.48,4.48 0 0 1 -0.9,2.73 6.72,6.72 0 0 1 -3,2.06 20.88,20.88 0 0 1 -4.3,1.21 13.37,13.37 0 0 0 -0.16,2 2.36,2.36 0 0 0 0.69,2 2.46,2.46 0 0 0 1.53,0.53 5,5 0 0 0 1.39,-0.23 6.58,6.58 0 0 0 1.31,-0.52 q 0.53,-0.29 2,-1.24 z m -6.81,-3.33 q 3.08,-0.68 4.15,-2.11 a 4.56,4.56 0 0 0 1.07,-2.67 1.45,1.45 0 0 0 -0.41,-1.1 1.43,1.43 0 0 0 -1,-0.39 2.54,2.54 0 0 0 -2.1,1.28 15.3,15.3 0 0 0 -1.69,4.99 z"
         id="path48"
         inkscape:connector-curvature="0"
         style="fill:#111111" />
      <path
         class="cls-4"
         d="m 498.53,232.6 0.34,0.58 -0.06,0.19 a 40.31,40.31 0 0 1 -4.16,2.73 3.6,3.6 0 0 1 -1.44,0.41 0.94,0.94 0 0 1 -0.9,-0.51 2.51,2.51 0 0 1 -0.27,-1.18 32.1,32.1 0 0 1 0.89,-5.4 L 495,220 q 0.18,-0.77 0.36,-1.86 a 11.78,11.78 0 0 0 0.19,-1.35 0.74,0.74 0 0 0 -0.19,-0.53 1,1 0 0 0 -0.7,-0.21 h -1.5 l -0.12,-0.13 0.09,-0.64 0.15,-0.13 a 28.45,28.45 0 0 0 6,-1.39 l 0.37,0.33 q -1.26,5.24 -2.47,11 l -1.42,6.71 a 7.32,7.32 0 0 0 -0.19,1.45 q 0,0.64 0.4,0.64 a 6.07,6.07 0 0 0 2.38,-1.32 z"
         id="path50"
         inkscape:connector-curvature="0"
         style="fill:#111111" />
      <path
         class="cls-4"
         d="m 524.46,224.13 q 1.1,-6.26 1.1,-7.24 a 0.74,0.74 0 0 0 -0.12,-0.44 0.67,0.67 0 0 0 -0.36,-0.24 4.7,4.7 0 0 0 -0.9,-0.12 l -1.33,-0.07 -0.1,-0.12 0.12,-0.81 L 523,215 q 1.72,0.1 4.16,0.1 1.91,0 5.31,-0.1 l 0.09,0.12 -0.13,0.81 -0.13,0.12 a 17.41,17.41 0 0 0 -1.9,0.12 0.9,0.9 0 0 0 -0.38,0.2 1.2,1.2 0 0 0 -0.27,0.41 23.47,23.47 0 0 0 -0.62,2.74 l -1.91,11.09 a 31.16,31.16 0 0 0 -0.46,3.45 0.73,0.73 0 0 0 0.3,0.66 2,2 0 0 0 1,0.23 l 1.51,0.07 0.1,0.12 -0.09,0.74 -0.13,0.13 q -1.72,-0.1 -4.54,-0.1 -2.82,0 -5,0.1 l -0.1,-0.12 0.09,-0.74 0.1,-0.15 h 0.68 a 4.08,4.08 0 0 0 1.49,-0.21 1.28,1.28 0 0 0 0.44,-0.65 27,27 0 0 0 0.64,-3 l 1,-5.46 h -8.72 q -1.32,7.43 -1.32,8.45 a 0.72,0.72 0 0 0 0.31,0.66 2,2 0 0 0 0.95,0.23 L 517,235 l 0.1,0.12 -0.09,0.74 -0.13,0.13 q -1.92,-0.1 -4.54,-0.1 -2.62,0 -5,0.1 l -0.1,-0.12 0.07,-0.74 0.15,-0.13 h 0.68 a 4,4 0 0 0 1.49,-0.21 1.36,1.36 0 0 0 0.44,-0.64 37.38,37.38 0 0 0 0.8,-3.92 l 1.36,-7.86 a 49.15,49.15 0 0 0 0.77,-5.4 0.81,0.81 0 0 0 -0.11,-0.46 0.63,0.63 0 0 0 -0.36,-0.24 4.7,4.7 0 0 0 -0.9,-0.12 l -1.33,-0.15 -0.1,-0.12 0.12,-0.81 0.13,-0.12 q 1.78,0.1 4.16,0.1 1.55,0 5.31,-0.1 l 0.09,0.12 -0.13,0.81 -0.13,0.12 q -1.63,0.06 -1.87,0.11 a 1,1 0 0 0 -0.43,0.22 1.69,1.69 0 0 0 -0.37,0.7 27.39,27.39 0 0 0 -0.58,2.84 l -0.75,4.25 q 2.93,0.1 4.4,0.1 z"
         id="path52"
         inkscape:connector-curvature="0"
         style="fill:#111111" />
      <path
         class="cls-4"
         d="m 542.75,232.49 0.34,0.61 v 0.18 a 24.73,24.73 0 0 1 -4.21,2.54 7.35,7.35 0 0 1 -2.84,0.69 4.59,4.59 0 0 1 -2,-0.46 2.76,2.76 0 0 1 -1.35,-1.33 4.24,4.24 0 0 1 -0.41,-1.83 18,18 0 0 1 0.61,-4.1 10,10 0 0 1 1.56,-3.72 10.46,10.46 0 0 1 3.07,-2.43 7.69,7.69 0 0 1 3.65,-1.21 3.24,3.24 0 0 1 2.1,0.66 2.29,2.29 0 0 1 0.73,1.91 4.48,4.48 0 0 1 -0.9,2.73 6.72,6.72 0 0 1 -3,2.06 20.88,20.88 0 0 1 -4.3,1.21 13.37,13.37 0 0 0 -0.16,2 2.36,2.36 0 0 0 0.69,2 2.46,2.46 0 0 0 1.53,0.53 5,5 0 0 0 1.39,-0.23 6.58,6.58 0 0 0 1.31,-0.52 q 0.53,-0.29 2,-1.24 z m -6.81,-3.33 q 3.08,-0.68 4.15,-2.11 a 4.56,4.56 0 0 0 1.07,-2.67 1.45,1.45 0 0 0 -0.41,-1.1 1.43,1.43 0 0 0 -1,-0.39 2.54,2.54 0 0 0 -2.1,1.28 15.3,15.3 0 0 0 -1.71,4.99 z"
         id="path54"
         inkscape:connector-curvature="0"
         style="fill:#111111" />
      <path
         class="cls-4"
         d="m 546.49,236.43 -0.31,-0.37 a 66.75,66.75 0 0 0 1.7,-6.85 26.7,26.7 0 0 0 0.53,-4.08 q 0,-0.75 -0.34,-0.76 a 5.76,5.76 0 0 0 -2,1.2 h -0.22 l -0.28,-0.49 v -0.21 a 34.44,34.44 0 0 1 3.73,-2.81 4,4 0 0 1 1.7,-0.68 0.73,0.73 0 0 1 0.65,0.33 1.39,1.39 0 0 1 0.22,0.79 5.62,5.62 0 0 1 -0.12,1.1 q -0.12,0.59 -1.13,4.87 h 0.21 q 0.7,-1.63 1.48,-3.08 a 15.3,15.3 0 0 1 1.54,-2.38 4.81,4.81 0 0 1 1.32,-1.22 2.54,2.54 0 0 1 1.2,-0.3 2.85,2.85 0 0 1 0.77,0.1 l 0.1,0.15 a 12.87,12.87 0 0 0 -0.41,2 14.62,14.62 0 0 0 -0.19,2 l -0.34,0.22 a 2.19,2.19 0 0 0 -2.92,-0.15 6.14,6.14 0 0 0 -1.43,2 18.52,18.52 0 0 0 -1.36,3.6 29.26,29.26 0 0 0 -0.84,4.36 l -1.68,0.26 a 7,7 0 0 0 -1.58,0.4 z"
         id="path56"
         inkscape:connector-curvature="0"
         style="fill:#111111" />
      <path
         class="cls-4"
         d="m 557.83,236.42 -0.38,-0.37 a 39.36,39.36 0 0 0 1.18,-3.86 q 0.73,-2.7 1.06,-4.7 a 21.29,21.29 0 0 0 0.33,-2.55 q 0,-0.5 -0.34,-0.5 a 5.9,5.9 0 0 0 -2.13,1.24 h -0.21 l -0.3,-0.52 V 225 q 0.77,-0.65 1.79,-1.44 1.02,-0.79 1.85,-1.32 a 6.71,6.71 0 0 1 1.24,-0.67 2.37,2.37 0 0 1 0.75,-0.14 q 0.81,0 0.81,1 a 11.14,11.14 0 0 1 -0.27,2 q -0.27,1.33 -1.11,4.51 a 18.56,18.56 0 0 1 4.21,-5.29 q 2.54,-2.19 4.12,-2.19 1.26,0 1.26,1.41 a 10.27,10.27 0 0 1 -0.34,2.2 q -0.34,1.43 -1.1,4.2 -0.5,1.84 -0.69,2.86 a 10.05,10.05 0 0 0 -0.19,1.33 q 0,0.55 0.36,0.55 a 5.11,5.11 0 0 0 2.18,-1.21 h 0.18 l 0.33,0.58 v 0.19 a 27.57,27.57 0 0 1 -3.63,2.45 4.41,4.41 0 0 1 -1.88,0.54 0.83,0.83 0 0 1 -0.84,-0.48 2.43,2.43 0 0 1 -0.21,-1 23.37,23.37 0 0 1 1,-4.89 A 26,26 0 0 0 568,225 q 0,-0.61 -0.58,-0.61 a 1.78,1.78 0 0 0 -0.73,0.24 6.27,6.27 0 0 0 -1.36,1.16 13.28,13.28 0 0 0 -1.64,2.09 15.66,15.66 0 0 0 -1.3,2.53 19.88,19.88 0 0 0 -0.93,2.92 19.59,19.59 0 0 0 -0.46,2.48 14.58,14.58 0 0 0 -3.17,0.61 z"
         id="path58"
         inkscape:connector-curvature="0"
         style="fill:#111111" />
      <path
         class="cls-4"
         d="m 588.82,232.72 0.33,0.58 -0.06,0.19 a 41.62,41.62 0 0 1 -3.68,2.52 3.68,3.68 0 0 1 -1.67,0.55 0.86,0.86 0 0 1 -0.75,-0.4 1.74,1.74 0 0 1 -0.27,-1 10,10 0 0 1 0.24,-1.81 q 0.24,-1.18 1,-4.31 a 22.65,22.65 0 0 1 -4.47,5.9 5.76,5.76 0 0 1 -3.24,1.64 1.48,1.48 0 0 1 -1.18,-0.61 3.57,3.57 0 0 1 -0.5,-2.19 15.08,15.08 0 0 1 0.41,-3.24 24.73,24.73 0 0 1 1.17,-3.75 5.2,5.2 0 0 1 0.91,-1.53 17,17 0 0 1 2.27,-1.86 12.59,12.59 0 0 1 2.48,-1.54 4.81,4.81 0 0 1 1.65,-0.27 7.16,7.16 0 0 1 1.54,0.2 6.7,6.7 0 0 1 1.63,0.58 l 1.36,-0.8 0.49,0.36 a 22.12,22.12 0 0 0 -0.9,3.23 l -1.1,5 a 23.73,23.73 0 0 0 -0.58,3.26 q 0,0.58 0.38,0.58 a 6.88,6.88 0 0 0 2.32,-1.27 z m -4.16,-8.84 a 5.44,5.44 0 0 0 -2.43,-0.67 2.25,2.25 0 0 0 -1.87,0.92 13.22,13.22 0 0 0 -1.54,4.09 20.73,20.73 0 0 0 -0.83,4.69 q 0,1.11 0.59,1.11 0.59,0 2.22,-1.87 a 17.32,17.32 0 0 0 2.63,-4.13 13.49,13.49 0 0 0 1.23,-4.14 z M 590,214 q -5.17,3.55 -7.89,5.66 l -0.77,-0.4 0.1,-0.19 2.44,-2.78 1.92,-2.15 0.22,-0.15 2,-0.18 1.79,-0.22 0.15,0.07 z"
         id="path60"
         inkscape:connector-curvature="0"
         style="fill:#111111" />
      <path
         class="cls-4"
         d="m 591.56,236.42 -0.38,-0.37 a 39.36,39.36 0 0 0 1.18,-3.86 q 0.73,-2.7 1.06,-4.7 a 21.29,21.29 0 0 0 0.33,-2.55 q 0,-0.5 -0.34,-0.5 a 5.9,5.9 0 0 0 -2.13,1.24 h -0.21 l -0.3,-0.52 V 225 q 0.77,-0.65 1.79,-1.44 1.02,-0.79 1.85,-1.32 a 6.71,6.71 0 0 1 1.24,-0.67 2.37,2.37 0 0 1 0.75,-0.14 q 0.81,0 0.81,1 a 11.14,11.14 0 0 1 -0.27,2 q -0.27,1.33 -1.11,4.51 a 18.56,18.56 0 0 1 4.21,-5.29 q 2.54,-2.19 4.12,-2.19 1.26,0 1.26,1.41 a 10.27,10.27 0 0 1 -0.34,2.2 q -0.34,1.43 -1.1,4.2 -0.5,1.84 -0.69,2.86 a 10.05,10.05 0 0 0 -0.19,1.33 q 0,0.55 0.36,0.55 a 5.11,5.11 0 0 0 2.18,-1.21 h 0.18 l 0.33,0.58 v 0.19 a 27.57,27.57 0 0 1 -3.63,2.45 4.41,4.41 0 0 1 -1.88,0.54 0.83,0.83 0 0 1 -0.84,-0.48 2.43,2.43 0 0 1 -0.21,-1 23.37,23.37 0 0 1 1,-4.89 26,26 0 0 0 1.14,-5.11 q 0,-0.61 -0.58,-0.61 a 1.78,1.78 0 0 0 -0.73,0.24 6.27,6.27 0 0 0 -1.36,1.16 13.28,13.28 0 0 0 -1.64,2.09 15.66,15.66 0 0 0 -1.3,2.53 19.88,19.88 0 0 0 -0.93,2.92 19.59,19.59 0 0 0 -0.46,2.48 14.58,14.58 0 0 0 -3.17,0.53 z"
         id="path62"
         inkscape:connector-curvature="0"
         style="fill:#111111" />
      <path
         class="cls-4"
         d="m 617.39,216 -0.12,-0.13 0.09,-0.64 0.15,-0.13 a 29,29 0 0 0 6,-1.39 l 0.37,0.33 -1.07,4.62 q -0.43,2 -1.69,8.23 -0.92,4.57 -1.07,5.71 a 7.41,7.41 0 0 0 -0.07,0.84 q 0,0.5 0.31,0.5 a 6.77,6.77 0 0 0 2.09,-1.26 h 0.18 l 0.31,0.58 v 0.19 a 34.13,34.13 0 0 1 -3.6,2.52 3.3,3.3 0 0 1 -1.43,0.44 0.92,0.92 0 0 1 -0.84,-0.41 1.74,1.74 0 0 1 -0.29,-1 14.92,14.92 0 0 1 0.56,-3 q 0.28,-1.14 0.74,-3.14 a 20.33,20.33 0 0 1 -4,5.43 q -2.34,2.21 -3.8,2.21 a 1.55,1.55 0 0 1 -1.38,-0.8 4.06,4.06 0 0 1 -0.5,-2.18 16.61,16.61 0 0 1 0.47,-3.83 16.1,16.1 0 0 1 1.12,-3.32 6.33,6.33 0 0 1 1.11,-1.75 18.73,18.73 0 0 1 2,-1.45 13.36,13.36 0 0 1 2.35,-1.31 4.81,4.81 0 0 1 1.67,-0.29 8.33,8.33 0 0 1 2,0.31 l 0.47,-3.12 a 15.21,15.21 0 0 0 0.21,-1.94 0.74,0.74 0 0 0 -0.2,-0.58 1,1 0 0 0 -0.66,-0.19 z m 1.33,7.64 a 5.83,5.83 0 0 0 -2.55,-0.52 2.88,2.88 0 0 0 -1.68,0.39 5.26,5.26 0 0 0 -1.21,2.19 25.82,25.82 0 0 0 -1.09,3.78 17.13,17.13 0 0 0 -0.41,3.43 q 0,1.05 0.55,1.05 a 2.31,2.31 0 0 0 1.27,-0.59 11.56,11.56 0 0 0 1.92,-2.11 16.33,16.33 0 0 0 1.9,-3.21 14.92,14.92 0 0 0 1,-3.1 z"
         id="path64"
         inkscape:connector-curvature="0"
         style="fill:#111111" />
      <path
         class="cls-4"
         d="m 635.45,232.49 0.34,0.61 v 0.18 a 24.73,24.73 0 0 1 -4.21,2.54 7.35,7.35 0 0 1 -2.84,0.69 4.59,4.59 0 0 1 -2,-0.46 2.76,2.76 0 0 1 -1.35,-1.33 4.24,4.24 0 0 1 -0.41,-1.83 18,18 0 0 1 0.61,-4.1 10,10 0 0 1 1.56,-3.72 10.46,10.46 0 0 1 3.07,-2.43 7.69,7.69 0 0 1 3.65,-1.21 3.24,3.24 0 0 1 2.1,0.66 2.29,2.29 0 0 1 0.81,1.89 4.48,4.48 0 0 1 -0.9,2.73 6.72,6.72 0 0 1 -3,2.06 20.88,20.88 0 0 1 -4.3,1.21 13.37,13.37 0 0 0 -0.16,2 2.36,2.36 0 0 0 0.69,2 2.46,2.46 0 0 0 1.53,0.53 5,5 0 0 0 1.39,-0.23 6.58,6.58 0 0 0 1.31,-0.52 q 0.53,-0.29 2,-1.24 z m -6.81,-3.33 q 3.08,-0.68 4.15,-2.11 a 4.56,4.56 0 0 0 1.07,-2.67 1.45,1.45 0 0 0 -0.41,-1.1 1.43,1.43 0 0 0 -1,-0.39 2.54,2.54 0 0 0 -2.1,1.28 15.3,15.3 0 0 0 -1.71,4.99 z"
         id="path66"
         inkscape:connector-curvature="0"
         style="fill:#111111" />
      <path
         class="cls-4"
         d="m 638.23,235.07 10.2,-10.75 a 5,5 0 0 1 -2.29,0.56 21.24,21.24 0 0 1 -2.49,-0.22 17.71,17.71 0 0 0 -1.91,-0.19 4.92,4.92 0 0 0 -0.64,0 q -0.18,0.34 -0.67,1.48 l -0.16,0.1 -0.62,-0.06 -0.07,-0.13 1.32,-4.17 a 4.67,4.67 0 0 1 1.55,-0.28 13.06,13.06 0 0 1 3.18,0.56 12.27,12.27 0 0 0 3.2,0.55 2.57,2.57 0 0 0 1.18,-0.24 2.27,2.27 0 0 0 0.86,-0.88 l 0.59,0.24 -0.41,1.57 -9.86,10.27 a 7.38,7.38 0 0 1 2.8,-0.75 13.88,13.88 0 0 1 2.28,0.28 15.55,15.55 0 0 0 2.31,0.3 5.06,5.06 0 0 0 0.71,-0.07 l 0.74,-1.63 0.18,-0.09 h 0.56 l 0.1,0.12 a 30.83,30.83 0 0 0 -1.1,4.25 3.63,3.63 0 0 1 -1.75,0.39 8,8 0 0 1 -1.3,-0.09 q -0.53,-0.09 -2.39,-0.58 a 14.2,14.2 0 0 0 -3.38,-0.53 3,3 0 0 0 -2.37,1 z"
         id="path68"
         inkscape:connector-curvature="0"
         style="fill:#111111" />
      <path
         class="cls-2"
         d="m 294,83.47 c 0,7.36 -2.15,13.38 -6.54,18 -4.39,4.62 -9.91,6.95 -16.86,6.95 a 136.28,136.28 0 0 1 -15.63,-0.82 v 23.91 H 243.19 V 60.38 A 162.82,162.82 0 0 1 269.65,58 c 15.22,0 24.01,9.84 24.35,25.47 z m -11.55,0.31 c 0,-9.71 -4.5,-15.84 -14.4,-15.84 a 108.12,108.12 0 0 0 -13.08,0.82 v 28.7 a 80.85,80.85 0 0 0 14,1 c 8.03,0.03 13.45,-6.21 13.45,-14.69 z"
         id="path70"
         inkscape:connector-curvature="0"
         style="fill:#574d50" />
      <path
         class="cls-2"
         d="m 349.78,60.38 v 47.51 H 338 v -3.68 a 26.58,26.58 0 0 1 -15.63,5.21 c -7.05,0 -12.67,-2.35 -17,-7 -4.33,-4.65 -6.44,-11 -6.44,-18.9 0.1,-15.53 9,-25.44 24.21,-25.44 a 193.69,193.69 0 0 1 26.64,2.3 z m -39.23,23.4 c 0,9.4 5.31,15.73 13.49,15.73 a 22.69,22.69 0 0 0 14,-5.21 V 68.76 A 108.12,108.12 0 0 0 325,67.94 c -10,0 -14.45,6.13 -14.45,15.83 z"
         id="path72"
         inkscape:connector-curvature="0"
         style="fill:#574d50" />
      <path
         class="cls-2"
         d="m 389.83,69.57 c -6.44,0 -12.46,0.2 -18,0.71 v 37.6 H 360.1 V 61 a 170,170 0 0 1 29.73,-3 z"
         id="path74"
         inkscape:connector-curvature="0"
         style="fill:#574d50" />
      <path
         class="cls-2"
         d="M 443.49,60.38 V 128 h -11.75 v -20.42 a 136.29,136.29 0 0 1 -15.63,0.82 c -6.95,0 -12.57,-2.35 -17,-6.95 -4.43,-4.6 -6.44,-10.63 -6.44,-18 C 393,67.84 401.81,58 417,58 a 162.81,162.81 0 0 1 26.49,2.38 z m -11.75,37.08 v -28.7 a 108.13,108.13 0 0 0 -13.08,-0.82 c -9.91,0 -14.41,6.13 -14.41,15.84 0,8.48 5.41,14.71 13.49,14.71 a 80.87,80.87 0 0 0 14,-1.03 z"
         id="path76"
         inkscape:connector-curvature="0"
         style="fill:#574d50" />
      <path
         class="cls-2"
         d="m 501.93,106.86 a 114.2,114.2 0 0 1 -12.77,1.74 c -5.62,0.51 -10.63,0.82 -15,0.82 -12.67,0 -20.33,-5.82 -20.33,-18.8 V 59.56 h 11.85 v 28.3 c 0,7.66 3.68,11.44 11,11.44 a 101.73,101.73 0 0 0 13.38,-0.92 V 59.56 h 11.85 z"
         id="path78"
         inkscape:connector-curvature="0"
         style="fill:#574d50" />
      <path
         class="cls-2"
         d="m 551.6,63.85 c 4.39,3.88 6.64,9 6.74,15.43 a 50.46,50.46 0 0 1 -0.72,8.89 h -35.75 c 1.74,6.64 7.15,10.73 15.32,10.73 3.58,0 9.3,-0.92 17.37,-2.66 l 1.63,9.6 c -7.66,2.35 -14.1,3.58 -19.31,3.58 -8.79,0 -15.63,-2.35 -20.43,-7.15 -4.8,-4.8 -7.15,-11 -7.15,-18.59 0,-7.77 2.35,-14 7.15,-18.7 4.8,-4.7 10.93,-7.05 18.29,-7.05 6.85,0 12.47,1.94 16.86,5.92 z m -30.14,15.33 h 26.26 c -0.31,-7.25 -5.41,-12 -12.77,-12 -7.36,0 -12.36,4.64 -13.49,12 z"
         id="path80"
         inkscape:connector-curvature="0"
         style="fill:#574d50" />
      <path
         class="cls-3"
         d="m 284.91,156.47 c -6.23,-1.33 -10.93,-2 -14,-2 -10.52,0 -17.06,6.44 -17.06,15.94 0,9.5 6.64,15.59 16.15,15.59 a 62.85,62.85 0 0 0 15.12,-2.25 l 1.64,9.5 a 54.31,54.31 0 0 1 -17.47,3.06 c -8,0 -14.51,-2.35 -19.51,-7.15 -5,-4.8 -7.56,-11 -7.56,-18.9 0,-7.9 2.56,-14.1 7.56,-18.7 5,-4.6 11.75,-7 20,-7 a 52.36,52.36 0 0 1 16.76,2.55 z"
         id="path82"
         inkscape:connector-curvature="0"
         style="fill:#ffb80f" />
      <path
         class="cls-3"
         d="m 298.85,122.65 a 7.74,7.74 0 0 1 7.87,7.87 7.87,7.87 0 1 1 -7.87,-7.87 z m 5.93,72.13 H 293 v -48.32 h 11.75 z"
         id="path84"
         inkscape:connector-curvature="0"
         style="fill:#ffb80f" />
      <path
         class="cls-3"
         d="m 354.11,150.75 c 4.39,3.88 6.64,9 6.74,15.43 a 50.58,50.58 0 0 1 -0.71,8.89 h -35.76 c 1.74,6.64 7.15,10.73 15.33,10.73 3.58,0 9.3,-0.92 17.37,-2.65 l 1.63,9.6 c -7.66,2.35 -14.1,3.58 -19.31,3.58 -8.79,0 -15.63,-2.35 -20.43,-7.15 -4.8,-4.8 -7.15,-11 -7.15,-18.59 0,-7.77 2.35,-14 7.15,-18.7 4.8,-4.7 10.93,-7 18.29,-7 6.84,-0.07 12.46,1.87 16.85,5.86 z M 324,166.07 h 26.26 c -0.31,-7.25 -5.41,-12 -12.77,-12 -7.36,0 -12.39,4.65 -13.49,12 z"
         id="path86"
         inkscape:connector-curvature="0"
         style="fill:#ffb80f" />
      <path
         class="cls-3"
         d="m 416.92,163.72 v 31.06 H 405.17 V 167.1 c 0,-6.95 -4.39,-11.44 -11,-11.44 -4,0 -8.48,0.31 -13.49,0.82 v 38.31 H 368.9 v -47.51 a 148.55,148.55 0 0 1 27.79,-2.35 c 12.26,-0.01 20.23,7.35 20.23,18.79 z"
         id="path88"
         inkscape:connector-curvature="0"
         style="fill:#ffb80f" />
      <path
         class="cls-3"
         d="m 462.5,194.78 a 56.55,56.55 0 0 1 -12.77,1.53 c -11.54,0 -18,-6.74 -18,-19.1 V 157 h -10.51 v -10.54 h 10.52 v -14.84 h 11.75 v 14.84 h 15.94 V 157 h -15.94 v 19 c 0,6.64 2.45,9.81 8.48,9.81 a 59.27,59.27 0 0 0 9.3,-0.82 z"
         id="path90"
         inkscape:connector-curvature="0"
         style="fill:#ffb80f" />
      <path
         class="cls-3"
         d="m 479.18,137.26 h -11.54 l 7.77,-15.43 h 15.73 z m 0.31,57.52 h -11.75 v -48.32 h 11.75 z"
         id="path92"
         inkscape:connector-curvature="0"
         style="fill:#ffb80f" />
      <path
         class="cls-3"
         d="M 543.55,194.78 H 531.81 V 157 h -24.42 v 37.8 H 495.64 V 157 H 484.2 v -10.54 h 11.44 V 141 q 0,-10.88 6.74,-16.86 c 4.5,-4.09 10.42,-6.13 17.67,-6.13 a 28.7,28.7 0 0 1 10.32,1.74 54.27,54.27 0 0 1 10.22,5.52 l -5.72,8.38 c -4.8,-3.37 -9.5,-5 -14.1,-5 -8.68,0 -13.38,4.5 -13.38,12.77 v 5 h 36.17 z"
         id="path94"
         inkscape:connector-curvature="0"
         style="fill:#ffb80f" />
      <path
         class="cls-3"
         d="m 593.37,156.47 c -6.23,-1.33 -10.93,-2 -14,-2 -10.52,0 -17.06,6.44 -17.06,15.94 0,9.5 6.64,15.59 16.14,15.59 a 62.85,62.85 0 0 0 15.12,-2.25 l 1.64,9.5 a 54.31,54.31 0 0 1 -17.47,3.06 c -8,0 -14.51,-2.35 -19.51,-7.15 -5,-4.8 -7.56,-11 -7.56,-18.9 0,-7.9 2.55,-14.1 7.56,-18.7 5.01,-4.6 11.75,-7 20,-7 a 52.36,52.36 0 0 1 16.77,2.51 z"
         id="path96"
         inkscape:connector-curvature="0"
         style="fill:#ffb80f" />
      <path
         class="cls-3"
         d="m 644,151.46 c 5,4.8 7.46,11 7.46,18.8 0,7.8 -2.46,14.31 -7.46,19.11 -5,4.8 -11.44,7.25 -19.51,7.25 -8.07,0 -14.61,-2.45 -19.62,-7.25 -5.01,-4.8 -7.46,-11.24 -7.46,-19.11 0,-7.87 2.45,-14 7.46,-18.8 5.01,-4.8 11.55,-7.15 19.62,-7.15 8.07,0 14.51,2.35 19.51,7.15 z m -4.5,18.8 c 0,-9.09 -6,-15.22 -15,-15.22 -9,0 -15.22,6.13 -15.22,15.22 0,9.4 6.13,15.63 15.22,15.63 9.09,0 15.02,-6.23 15.02,-15.63 z"
         id="path98"
         inkscape:connector-curvature="0"
         style="fill:#ffb80f" />
    </g>
  </g>
  <g
     data-name="Capa 2"
     id="Capa_2-3"
     transform="matrix(3.7714437,0,0,3.7714437,746.20859,57.480899)">
    <g
       data-name="Capa 1"
       id="Capa_1-2-6">
      <path
         id="path244"
         d="m 47.94,30.07 c 0.43,0 0.89,-0.07 1.32,-0.07 0.43,0 0.86,0 1.29,0.07 l 0.06,-0.46 h -0.5 a 0.59,0.59 0 0 1 -0.33,-0.07 c -0.13,-0.07 -0.17,-0.17 -0.17,-0.33 a 1.62,1.62 0 0 1 0,-0.4 L 51,22.7 52.72,30.24 H 53 l 4.37,-8 -1,6.44 a 3.71,3.71 0 0 1 -0.13,0.6 c -0.07,0.16 -0.1,0.23 -0.3,0.27 a 1.61,1.61 0 0 1 -0.69,0.1 v 0.46 c 0.6,0 1.19,-0.07 1.82,-0.07 0.63,0 1.22,0 1.85,0.07 v -0.46 h -0.3 a 3.61,3.61 0 0 1 -0.6,-0.1 c -0.13,0 -0.16,-0.17 -0.16,-0.33 a 5.12,5.12 0 0 1 0.06,-0.66 L 58,28 58.89,22.22 a 2.68,2.68 0 0 1 0.23,-0.73 c 0.23,-0.27 0.6,-0.13 0.93,-0.2 v -0.5 a 13.89,13.89 0 0 1 -2.71,0 l -3.71,6.84 -1.22,-5.43 c -0.07,-0.46 -0.2,-0.93 -0.3,-1.39 a 13.23,13.23 0 0 1 -2.65,0 l -0.07,0.5 h 0.23 a 2.12,2.12 0 0 1 0.79,0.17 c 0.13,0.07 0.17,0.27 0.17,0.4 0,0.13 -0.17,0.8 -0.2,1 L 49,28.78 c -0.1,0.33 -0.13,0.6 -0.46,0.73 l -0.4,0.1 H 48 Z"
         inkscape:connector-curvature="0" />
      <path
         id="path246"
         d="m 62.42,22.43 c 0.53,0 0.83,-0.46 0.83,-1 a 0.7,0.7 0 0 0 -0.66,-0.73 0.91,0.91 0 0 0 -0.83,1 c 0,0.46 0.23,0.76 0.66,0.76 m -2.48,3.22 A 4.66,4.66 0 0 1 61,25 c 0.13,0 0.13,0.13 0.13,0.23 a 2.65,2.65 0 0 1 -0.07,0.5 l -0.1,0.5 -0.53,2.29 -0.07,0.43 a 2.26,2.26 0 0 0 0,0.93 2.07,2.07 0 0 0 0.13,0.26 0.53,0.53 0 0 0 0.3,0.1 1.17,1.17 0 0 0 0.33,-0.07 2.49,2.49 0 0 0 0.6,-0.33 c 0.46,-0.3 0.86,-0.63 1.32,-1 l -0.17,-0.37 -0.63,0.46 a 3,3 0 0 1 -0.33,0.17 c -0.13,0 -0.17,-0.1 -0.17,-0.2 A 4,4 0 0 1 61.87,28 l 0.33,-1.56 0.36,-1.39 a 4.54,4.54 0 0 0 0.13,-0.9 0.54,0.54 0 0 0 -0.2,-0.43 c 0,-0.07 -0.17,-0.07 -0.23,-0.07 a 0.51,0.51 0 0 0 -0.27,0.07 12.24,12.24 0 0 0 -2.22,1.56 z"
         inkscape:connector-curvature="0" />
      <path
         id="path248"
         d="m 66.18,30.8 c 0.36,0.27 0.8,0.6 0.8,1.1 0,0.9 -0.93,1.26 -1.59,1.26 a 1.51,1.51 0 0 1 -1.69,-1.39 2.41,2.41 0 0 1 1.52,-1.69 z m -1.46,-0.9 a 6.69,6.69 0 0 0 -1.29,0.63 2,2 0 0 0 -0.79,1.47 1.64,1.64 0 0 0 0.86,1.33 3.9,3.9 0 0 0 1.72,0.33 c 1.22,0 3,-0.6 3,-2.26 a 2,2 0 0 0 -1,-1.49 l -1,-0.8 -0.07,-0.1 c -0.16,-0.17 -0.26,-0.27 -0.16,-0.53 a 1.88,1.88 0 0 1 0.76,-0.5 3,3 0 0 0 1.25,-0.86 2.64,2.64 0 0 0 0.53,-1.69 4,4 0 0 0 -0.1,-0.6 c 0,-0.07 0,-0.07 0,-0.13 l 1.06,0.07 0.13,-0.66 L 69.55,24 h -0.89 -0.83 -0.1 a 2.21,2.21 0 0 0 -1,-0.23 2.5,2.5 0 0 0 -1,0.3 c -0.63,0.27 -1.16,0.43 -1.49,1.13 a 2.59,2.59 0 0 0 -0.36,1.39 c 0,1.26 0.86,1.66 1.85,1.63 l -0.26,0.2 -0.79,0.57 a 0.65,0.65 0 0 0 0,0.43 1,1 0 0 0 0.3,0.5 z m 1.72,-5.61 a 0.83,0.83 0 0 1 0.6,0.27 1.23,1.23 0 0 1 0.23,0.83 c 0,0.86 -0.26,2.29 -1.26,2.29 -0.63,0 -0.89,-0.53 -0.89,-1.16 a 5.13,5.13 0 0 1 0.27,-1.43 1.12,1.12 0 0 1 1.06,-0.8"
         inkscape:connector-curvature="0" />
      <path
         id="path250"
         d="m 69.72,25.46 0.2,-0.13 c 0.13,-0.1 0.63,-0.5 0.79,-0.33 0,0 0,0.1 0,0.13 a 2.77,2.77 0 0 1 -0.1,0.9 l -0.23,1.13 -0.23,1 a 5.9,5.9 0 0 0 -0.15,1.35 0.68,0.68 0 0 0 0.3,0.66 c 0.17,0.07 0.23,0.1 0.36,0.07 1.09,-0.27 2.28,-1.83 2.85,-2.82 a 3.44,3.44 0 0 1 0.17,-0.33 l -0.36,1.46 a 5.2,5.2 0 0 0 -0.17,1.23 0.4,0.4 0 0 0 0.23,0.4 0.46,0.46 0 0 0 0.2,0.07 c 0.07,0 0.13,0 0.2,-0.07 a 7.27,7.27 0 0 0 1.85,-1.33 l -0.13,-0.37 -0.53,0.43 c -0.2,0.13 -0.53,0.26 -0.53,-0.17 0,-0.07 0.13,-0.73 0.17,-0.86 l 0.26,-1.3 0.33,-1.26 0.13,-0.56 0.17,-0.6 a 0.78,0.78 0 0 0 0.07,-0.27 l -0.1,-0.1 a 4.2,4.2 0 0 1 -1.29,0.23 v 0.13 a 10.85,10.85 0 0 1 -0.4,1.79 8.27,8.27 0 0 1 -0.83,1.73 C 72.67,28 72,29 71.57,29 c -0.13,0 -0.16,-0.07 -0.2,-0.17 a 2.73,2.73 0 0 1 0.1,-0.9 l 0.66,-2.86 a 3.33,3.33 0 0 0 0.13,-0.76 0.76,0.76 0 0 0 -0.17,-0.56 c -0.1,-0.1 -0.27,-0.1 -0.53,0 a 8.54,8.54 0 0 0 -2,1.29 z"
         inkscape:connector-curvature="0" />
      <path
         id="path252"
         d="m 80.39,28.48 a 4.31,4.31 0 0 1 -1.89,0.9 c -0.63,0 -1,-0.4 -1,-1.1 a 8.18,8.18 0 0 1 0.07,-0.86 7.32,7.32 0 0 0 0.83,-0.2 c 0.36,-0.13 0.76,-0.27 1.12,-0.43 a 2.06,2.06 0 0 0 1.32,-2 1.07,1.07 0 0 0 -1.16,-1.13 2.49,2.49 0 0 0 -0.86,0.2 c -0.2,0.1 -0.36,0.2 -0.53,0.3 a 5.79,5.79 0 0 0 -0.6,0.4 3.13,3.13 0 0 0 -1.26,2.09 9.08,9.08 0 0 0 -0.3,1.86 c 0,1.09 0.5,1.69 1.49,1.69 0.99,0 2,-0.8 2.85,-1.39 z m -2.55,-2.19 c 0.17,-0.76 0.53,-2 1.36,-2 0.36,0 0.56,0.33 0.56,0.7 a 2,2 0 0 1 -0.5,1.2 2.2,2.2 0 0 1 -1.19,0.7 c -0.13,0 -0.26,0.1 -0.4,0.13 z"
         inkscape:connector-curvature="0" />
      <path
         id="path254"
         d="m 81.71,28 a 6.16,6.16 0 0 0 -0.2,1.36 c 0,0.33 0,0.83 0.46,0.83 a 1.52,1.52 0 0 0 0.79,-0.33 l 0.53,-0.33 c 0.33,-0.23 0.63,-0.5 1,-0.73 l -0.2,-0.37 a 1.9,1.9 0 0 1 -0.5,0.37 l -0.13,0.1 a 0.77,0.77 0 0 1 -0.33,0.17 c -0.13,0 -0.17,-0.17 -0.17,-0.3 a 6,6 0 0 1 0.13,-1.1 l 1.09,-5.51 c 0.13,-0.6 0.26,-1.19 0.4,-1.83 L 84.45,20.2 a 10.47,10.47 0 0 1 -2.48,0.63 v 0.4 h 0.46 c 0.17,0 0.36,0 0.5,0.17 0.14,0.17 0,0.46 0,0.63 l -0.1,0.6 -0.3,1.73 -0.43,2 z"
         inkscape:connector-curvature="0" />
      <path
         id="path256"
         d="M 87.33,30.07 C 88,30 88.55,30 89.18,30 c 0.63,0 1.26,0 1.89,0.07 l 0.07,-0.46 h -0.4 c -0.33,0 -0.66,0 -0.66,-0.43 a 2.76,2.76 0 0 1 0,-0.53 l 0.2,-1.43 0.1,-0.5 c 0,-0.4 0.1,-0.83 0.16,-1.2 h 3.51 l -0.5,3 a 6.74,6.74 0 0 1 -0.2,0.86 0.48,0.48 0 0 1 -0.1,0.13 c 0,0 0,0.07 -0.07,0.07 a 3.79,3.79 0 0 1 -0.86,0.1 l -0.07,0.46 c 0.63,0 1.26,-0.07 1.89,-0.07 0.63,0 1.29,0 1.92,0.07 l 0.07,-0.46 h -0.3 a 1.54,1.54 0 0 1 -0.56,-0.07 c -0.23,-0.07 -0.23,-0.1 -0.23,-0.4 a 5.77,5.77 0 0 1 0.07,-0.73 L 95.18,27.92 96,23.16 a 9.35,9.35 0 0 1 0.27,-1.33 c 0,-0.13 0.07,-0.4 0.2,-0.46 a 3.66,3.66 0 0 1 0.86,-0.07 v -0.47 c -0.6,0 -1.23,0.07 -1.85,0.07 -0.62,0 -1.26,0 -1.85,-0.07 l -0.1,0.47 h 0.4 c 0.2,0 0.46,0 0.63,0.17 0.17,0.17 0.07,0.26 0.07,0.46 l -0.17,1.1 c -0.1,0.6 -0.16,1.16 -0.26,1.76 h -3.53 l 0.46,-2.59 c 0.2,-1 0.2,-0.9 1.12,-0.93 l 0.1,-0.47 c -0.63,0 -1.22,0.07 -1.89,0.07 -0.67,0 -1.26,0 -1.89,-0.07 l -0.07,0.47 0.66,0.07 c 0.26,0 0.43,0 0.43,0.4 a 3.66,3.66 0 0 1 -0.07,0.6 l -0.17,1 -0.7,4.66 -0.13,0.83 c -0.07,0.27 -0.07,0.56 -0.27,0.66 a 2.6,2.6 0 0 1 -0.86,0.13 z"
         inkscape:connector-curvature="0" />
      <path
         id="path258"
         d="m 101,28.48 a 4.32,4.32 0 0 1 -1.89,0.9 c -0.63,0 -0.93,-0.4 -0.93,-1.06 a 8.23,8.23 0 0 1 0.07,-0.9 6.61,6.61 0 0 0 0.79,-0.17 c 0.36,-0.17 0.76,-0.26 1.16,-0.46 a 2.08,2.08 0 0 0 1.29,-2 1.06,1.06 0 0 0 -1.12,-1.13 2.7,2.7 0 0 0 -0.89,0.2 c -0.17,0.1 -0.33,0.2 -0.53,0.3 -0.2,0.1 -0.4,0.27 -0.56,0.4 a 3.17,3.17 0 0 0 -1.29,2.09 12.12,12.12 0 0 0 -0.3,1.86 c 0,1.1 0.5,1.69 1.49,1.69 0.99,0 2,-0.8 2.85,-1.39 z m -2.55,-2.19 c 0.17,-0.73 0.53,-1.93 1.36,-1.93 a 0.59,0.59 0 0 1 0.56,0.66 2.12,2.12 0 0 1 -0.46,1.2 2.48,2.48 0 0 1 -1.22,0.73 l -0.4,0.1 z"
         inkscape:connector-curvature="0" />
      <path
         id="path260"
         d="m 102.25,25.62 a 2.88,2.88 0 0 1 0.86,-0.6 c 0.16,0 0.2,0.17 0.2,0.33 a 3.71,3.71 0 0 1 -0.06,0.6 l -0.3,1.73 -0.23,1.16 c -0.1,0.4 -0.2,0.83 -0.33,1.23 l 0.13,0.17 a 3.13,3.13 0 0 1 1,-0.23 1.14,1.14 0 0 0 0.33,0 l 0.07,-0.47 0.13,-0.76 0.17,-0.76 c 0.1,-0.37 0.17,-0.6 0.3,-1 0.27,-0.63 0.63,-1.56 1.36,-1.56 a 0.61,0.61 0 0 1 0.5,0.2 c 0,0 0.06,0 0.1,0.07 l 0.13,-0.1 a 9,9 0 0 1 0.26,-1.83 0.75,0.75 0 0 0 -0.6,0 1.51,1.51 0 0 0 -0.5,0.3 3.23,3.23 0 0 0 -0.73,1 c -0.26,0.57 -0.53,1.1 -0.76,1.66 l -0.1,0.07 0.1,-0.4 0.1,-0.36 0.23,-1.13 a 1.9,1.9 0 0 0 0,-1 0.18,0.18 0 0 0 -0.1,-0.17 0.34,0.34 0 0 0 -0.4,0 1.26,1.26 0 0 0 -0.36,0.2 9,9 0 0 0 -1.12,0.86 c -0.17,0.17 -0.33,0.3 -0.53,0.46 z"
         inkscape:connector-curvature="0" />
      <path
         id="path262"
         d="m 106.89,25.59 a 2.11,2.11 0 0 1 0.89,-0.56 0.22,0.22 0 0 1 0.13,0.23 1.64,1.64 0 0 0 0,0.4 l -0.07,0.43 -0.13,0.9 -0.23,1 -0.1,0.4 -0.1,0.27 c -0.1,0.43 -0.23,0.83 -0.36,1.23 l 0.13,0.17 a 8,8 0 0 1 1.29,-0.23 3.24,3.24 0 0 1 0.07,-0.53 c 0.06,-0.23 0.1,-0.5 0.17,-0.73 0.07,-0.23 0.1,-0.27 0.17,-0.43 a 6.1,6.1 0 0 1 0.83,-1.83 c 0.23,-0.33 1,-1.46 1.49,-1.26 0,0 0.07,0.07 0.07,0.1 0,0.03 0,0.7 -0.07,0.9 l -0.63,2.56 c 0,0.27 -0.13,0.66 -0.13,0.9 a 0.77,0.77 0 0 0 0.13,0.6 0.62,0.62 0 0 0 0.26,0.13 0.65,0.65 0 0 0 0.23,0 6.55,6.55 0 0 0 2,-1.36 l -0.13,-0.33 c -0.17,0.17 -0.86,0.76 -1.06,0.56 -0.2,-0.2 0,-0.7 0.07,-0.9 l 0.07,-0.4 0.07,-0.27 0.07,-0.27 0.33,-1.39 0.2,-1 a 1.72,1.72 0 0 0 0.07,-0.6 0.44,0.44 0 0 0 -0.27,-0.46 c -0.07,-0.07 -0.13,-0.07 -0.2,-0.1 h -0.23 l -0.43,0.2 a 7.6,7.6 0 0 0 -2.35,2.36 l -0.33,0.66 0.36,-1.56 a 8.72,8.72 0 0 0 0.2,-1.29 0.29,0.29 0 0 0 -0.13,-0.3 c 0,-0.07 -0.1,-0.07 -0.17,-0.07 -0.07,0 -0.13,0 -0.2,0 a 1.68,1.68 0 0 0 -0.5,0.23 6.68,6.68 0 0 0 -0.83,0.63 7.44,7.44 0 0 0 -0.76,0.66 z"
         inkscape:connector-curvature="0" />
      <path
         id="path264"
         d="m 118.68,21.77 c 0.2,-0.13 0.46,-0.27 0.56,-0.53 a 0.69,0.69 0 0 0 -0.36,-0.73 0.32,0.32 0 0 0 -0.3,0 1,1 0 0 0 -0.33,0.17 6.69,6.69 0 0 0 -0.5,0.6 l -1.39,1.63 h 0.6 z m -0.26,2.29 a 2.51,2.51 0 0 0 -1.19,-0.37 1.36,1.36 0 0 0 -0.73,0.13 7.77,7.77 0 0 0 -1.89,1.46 1.4,1.4 0 0 0 -0.17,0.23 7.8,7.8 0 0 0 -0.56,1.69 8,8 0 0 0 -0.26,2 c 0,0.43 0.16,1 0.63,1 1.22,0 2.55,-2.19 3.11,-3.29 l -0.13,0.56 -0.07,0.3 -0.23,1.06 a 5,5 0 0 0 -0.07,0.7 0.85,0.85 0 0 0 0.2,0.63 c 0.07,0 0.13,0 0.2,0 a 2,2 0 0 0 1.09,-0.5 7.75,7.75 0 0 0 1,-0.8 l -0.13,-0.43 a 4.24,4.24 0 0 1 -0.56,0.5 c -0.13,0 -0.23,0.17 -0.36,0.13 a 0.22,0.22 0 0 1 -0.1,-0.17 2,2 0 0 1 0.07,-0.76 l 0.7,-3.42 0.2,-0.8 c 0,0 0,-0.1 0,-0.13 L 119,23.7 Z m -0.86,1 a 7.16,7.16 0 0 1 -2.25,4 c 0,0 -0.1,0.07 -0.13,0 A 0.34,0.34 0 0 1 115,29 a 1.69,1.69 0 0 1 -0.07,-0.4 10.78,10.78 0 0 1 0.3,-1.76 7.23,7.23 0 0 1 0.69,-2.06 0.89,0.89 0 0 1 0.76,-0.4 2.33,2.33 0 0 1 0.93,0.3 z"
         inkscape:connector-curvature="0" />
      <path
         id="path266"
         d="m 119.89,25.59 a 2.13,2.13 0 0 1 0.89,-0.56 0.22,0.22 0 0 1 0.13,0.23 1.69,1.69 0 0 0 0,0.4 l -0.07,0.43 -0.13,0.9 -0.23,1 -0.1,0.4 -0.1,0.27 c -0.1,0.43 -0.23,0.83 -0.36,1.23 l 0.13,0.17 a 8.06,8.06 0 0 1 1.29,-0.23 3.46,3.46 0 0 1 0.07,-0.53 6,6 0 0 0 0.17,-0.73 c 0,-0.1 0.1,-0.27 0.16,-0.43 a 6.08,6.08 0 0 1 0.83,-1.83 c 0.23,-0.33 1,-1.46 1.49,-1.26 0,0 0.07,0.07 0.07,0.1 0,0.03 0,0.7 -0.07,0.9 l -0.63,2.56 c 0,0.27 -0.13,0.66 -0.13,0.9 a 0.78,0.78 0 0 0 0.13,0.6 0.63,0.63 0 0 0 0.26,0.13 0.65,0.65 0 0 0 0.23,0 6.54,6.54 0 0 0 2,-1.36 l -0.13,-0.33 c -0.17,0.17 -0.86,0.76 -1.06,0.56 -0.2,-0.2 0,-0.7 0.07,-0.9 l 0.07,-0.4 0.07,-0.27 0.07,-0.27 0.33,-1.39 0.2,-1 a 1.73,1.73 0 0 0 0.07,-0.6 0.44,0.44 0 0 0 -0.27,-0.46 c -0.07,-0.07 -0.13,-0.07 -0.2,-0.1 h -0.23 c -0.17,0.07 -0.3,0.13 -0.43,0.2 a 7.58,7.58 0 0 0 -2.35,2.36 l -0.33,0.66 0.36,-1.56 a 8.92,8.92 0 0 0 0.2,-1.29 0.29,0.29 0 0 0 -0.13,-0.3 c 0,-0.07 -0.1,-0.07 -0.16,-0.07 -0.06,0 -0.13,0 -0.2,0 a 1.66,1.66 0 0 0 -0.5,0.23 6.55,6.55 0 0 0 -0.83,0.63 7.39,7.39 0 0 0 -0.76,0.66 z"
         inkscape:connector-curvature="0" />
      <path
         id="path268"
         d="m 130.47,25.59 a 7.59,7.59 0 0 1 -1.06,2.36 c -0.17,0.23 -0.3,0.43 -0.5,0.66 -0.2,0.23 -0.53,0.53 -0.73,0.53 a 0.25,0.25 0 0 1 -0.27,-0.17 5,5 0 0 1 0.1,-1.56 8.53,8.53 0 0 1 0.2,-0.9 7.39,7.39 0 0 1 0.69,-1.93 1.25,1.25 0 0 1 0.76,-0.2 2.08,2.08 0 0 1 1,0.23 z m -0.1,-4.32 c 0.53,0 0.76,-0.07 0.69,0.6 a 19.53,19.53 0 0 1 -0.23,2 2.54,2.54 0 0 0 -0.83,-0.13 1.33,1.33 0 0 0 -0.63,0.13 3,3 0 0 0 -0.56,0.3 4.55,4.55 0 0 0 -1.46,1.29 6.67,6.67 0 0 0 -0.69,2.12 6.89,6.89 0 0 0 -0.17,1.43 1.66,1.66 0 0 0 0.27,1 1.45,1.45 0 0 0 0.23,0.2 1.18,1.18 0 0 0 0.36,0.07 0.75,0.75 0 0 0 0.33,-0.1 7,7 0 0 0 2.58,-3 1.28,1.28 0 0 0 0.13,-0.23 L 129.94,29 a 3.77,3.77 0 0 0 -0.1,0.6 c 0,0.33 0.13,0.63 0.46,0.63 0.63,0 1.56,-0.93 2.05,-1.33 l -0.13,-0.37 -0.3,0.2 c -0.13,0.1 -0.46,0.4 -0.56,0.4 -0.1,0 -0.2,-0.1 -0.2,-0.23 0,-0.13 0.07,-0.4 0.07,-0.53 l 0.36,-2.09 0.73,-4 0.07,-0.27 0.26,-1.36 a 1,1 0 0 1 0.07,-0.3 l -0.13,-0.17 a 6.48,6.48 0 0 1 -2.45,0.6 l -0.07,0.4 z"
         inkscape:connector-curvature="0" />
      <path
         id="path270"
         d="m 137.13,28.48 a 4.43,4.43 0 0 1 -1.92,0.9 c -0.63,0 -0.93,-0.4 -0.93,-1.06 a 8.26,8.26 0 0 1 0.07,-0.9 7.18,7.18 0 0 0 0.83,-0.17 c 0.36,-0.17 0.76,-0.26 1.13,-0.46 a 2.11,2.11 0 0 0 1.32,-2 1.07,1.07 0 0 0 -1.16,-1.13 2.52,2.52 0 0 0 -0.86,0.2 c -0.2,0.1 -0.36,0.2 -0.53,0.3 l -0.6,0.4 a 3.13,3.13 0 0 0 -1.26,2.09 9,9 0 0 0 -0.3,1.86 c 0,1.1 0.5,1.69 1.49,1.69 0.99,0 2,-0.8 2.85,-1.39 z m -2.55,-2.19 c 0.13,-0.73 0.5,-1.93 1.36,-1.93 a 0.59,0.59 0 0 1 0.56,0.66 2,2 0 0 1 -0.5,1.2 2.27,2.27 0 0 1 -1.19,0.73 l -0.4,0.1 z"
         inkscape:connector-curvature="0" />
      <path
         id="path272"
         d="m 137.89,29.67 0.17,0.4 a 1.34,1.34 0 0 1 0.89,-0.36 4.17,4.17 0 0 1 1.09,0.17 l 0.73,0.2 a 6.19,6.19 0 0 0 1.09,0.17 c 0.23,0 0.6,0 0.6,-0.33 0.13,-0.6 0.26,-1.19 0.43,-1.76 h -0.33 l -0.27,0.76 h -0.1 l -0.86,-0.1 -0.7,-0.1 a 2.1,2.1 0 0 0 -0.79,0 A 2.46,2.46 0 0 0 139,29 l 3.9,-4.48 0.17,-0.66 -0.23,-0.13 -0.07,0.07 a 0.81,0.81 0 0 1 -0.2,0.27 0.88,0.88 0 0 1 -0.5,0.17 1.86,1.86 0 0 1 -0.73,-0.1 l -1.22,-0.3 a 1.87,1.87 0 0 0 -0.6,-0.1 1.67,1.67 0 0 0 -0.56,0.1 c 0,0 0,0 -0.07,0 l -0.56,1.89 h 0.36 l 0.17,-0.46 0.07,-0.17 c 0,0 0,0 0,-0.07 a 2.66,2.66 0 0 1 0.5,0 l 0.89,0.13 a 4.42,4.42 0 0 0 0.66,0 1.77,1.77 0 0 0 0.73,-0.13 A 0.7,0.7 0 0 1 142,25 Z"
         inkscape:connector-curvature="0" />
      <path
         id="path274"
         d="m 56.85,4.34 h -2.67 v 6.95 c 0,1.56 -0.37,2.92 -1.73,2.92 -1.36,0 -1.73,-1.36 -1.73,-2.92 V 4.34 h -2.64 v 7.45 c 0,3.32 1.73,4.78 4.36,4.78 2.63,0 4.41,-1.46 4.41,-4.78 z"
         inkscape:connector-curvature="0" />
      <polygon
         id="polygon276"
         points="58.79,4.34 58.79,16.38 61.15,16.38 61.05,8.17 64.41,16.38 67.57,16.38 67.57,4.34 65.26,4.34 65.32,12.5 65.26,12.5 62.05,4.34 " />
      <rect
         id="rect278"
         height="12.04"
         width="2.5599999"
         y="4.3400002"
         x="70.029999" />
      <polygon
         id="polygon280"
         points="81.28,4.34 79.12,13.81 76.96,4.34 74.25,4.34 77.46,16.38 80.63,16.38 83.89,4.34 " />
      <polygon
         id="polygon282"
         points="92.12,4.34 85.34,4.34 85.34,16.38 92.27,16.38 92.27,14.11 87.9,14.11 87.9,11.39 91.86,11.39 91.86,9.13 87.9,9.13 87.9,6.61 92.12,6.61 " />
      <path
         id="path284"
         d="m 96.84,6.61 h 0.65 c 1,0 1.86,0.2 1.86,1.36 0,1.36 -1.05,1.36 -1.86,1.36 h -0.65 z m -2.56,9.77 h 2.56 v -4.74 h 0.5 c 1,0 1.3,0.5 1.81,2.57 l 0.55,2.16 h 2.66 l -1,-3.27 c -0.45,-1.46 -0.5,-2.37 -1.35,-2.67 C 101.3,10 101.9,9 101.9,7.36 a 2.85,2.85 0 0 0 -3.11,-3 h -4.51 z"
         inkscape:connector-curvature="0" />
      <path
         id="path286"
         d="m 103.81,16.07 a 8,8 0 0 0 2.86,0.5 c 2.11,0 4.22,-0.86 4.22,-4 0,-4.33 -4.57,-3 -4.57,-5 0,-1 1.1,-1.11 1.76,-1.11 a 4.54,4.54 0 0 1 2.11,0.55 l 0.15,-2.47 a 6.14,6.14 0 0 0 -2.46,-0.45 c -1.91,0 -4.17,0.81 -4.17,3.67 0,4.38 4.52,3 4.52,5.24 0,1 -0.75,1.16 -1.55,1.16 a 4.77,4.77 0 0 1 -2.66,-0.81 z"
         inkscape:connector-curvature="0" />
      <rect
         id="rect288"
         height="12.04"
         width="2.5599999"
         y="4.3400002"
         x="113" />
      <polygon
         id="polygon290"
         points="122.18,6.71 124.54,6.71 124.54,4.34 117.27,4.34 117.27,6.71 119.62,6.71 119.62,16.38 122.18,16.38 " />
      <path
         id="path292"
         d="m 130.66,11.54 h -2.41 l 1.25,-4.73 z m -6.37,4.83 h 2.61 l 0.75,-2.57 h 3.61 l 0.7,2.57 h 2.81 l -3.71,-12 H 128 Z"
         inkscape:connector-curvature="0" />
      <path
         id="path294"
         d="m 136.09,16.07 a 8,8 0 0 0 2.86,0.5 c 2.06,0 4.17,-0.86 4.17,-4 0,-4.33 -4.47,-3 -4.47,-5 0,-1 1.06,-1.11 1.66,-1.11 a 4.54,4.54 0 0 1 2.11,0.55 l 0.2,-2.47 a 6.25,6.25 0 0 0 -2.51,-0.45 c -1.86,0 -4.11,0.81 -4.11,3.67 0,4.38 4.47,3 4.47,5.24 0,1 -0.7,1.16 -1.51,1.16 a 4.9,4.9 0 0 1 -2.66,-0.81 z"
         inkscape:connector-curvature="0" />
      <path
         id="path296"
         d="m 22.53,34.49 h 2.48 c -0.11,0.22 -1.45,4.35 -1.92,4.34 a 1.53,1.53 0 0 1 -1.18,-0.8 c -0.38,-0.89 0.62,-3.49 0.62,-3.49"
         class="cls-1"
         inkscape:connector-curvature="0"
         style="fill:#990020" />
      <path
         id="path298"
         d="m 41.35,24.48 a 6.36,6.36 0 0 0 -1.63,-0.26 v 2 a 4.14,4.14 0 0 0 1.88,0.16 c 0.68,-0.12 0.84,-1.72 -0.25,-1.86"
         class="cls-1"
         inkscape:connector-curvature="0"
         style="fill:#990020" />
      <path
         id="path300"
         d="m 5.3,22.49 a 28.85,28.85 0 0 0 -2,5.92 C 3,29.56 2.37,31.2 2.21,31.76 2.05,32.32 1.6,33.49 1.07,33.26 0.54,33.03 -0.65,32.34 0.46,30.62 A 54,54 0 0 0 2.59,24.9 c 0.29,-1 1,-3 1.62,-4.82 0.62,-1.82 0.64,-1.67 1.11,-2.89"
         class="cls-1"
         inkscape:connector-curvature="0"
         style="fill:#990020" />
      <path
         id="path302"
         d="m 38.31,25.91 a 16.29,16.29 0 0 0 -2,-0.29 c -0.9,-0.07 -1.21,-0.44 -1.5,0.78 a 15.8,15.8 0 0 0 -0.46,2.93 c -0.08,1.24 -0.39,3.88 -1.44,4.21 -1.05,0.33 -1.51,-0.45 -1.41,-1.6 a 22.39,22.39 0 0 1 0.86,-3.54 c 0.18,-0.63 0.74,-2.92 0.74,-2.92 0,0 0,-0.4 -1.25,-0.28 a 27.13,27.13 0 0 0 -3.1,0.51 2.31,2.31 0 0 0 -2,1.53 c -0.44,1.07 -1,5.11 -1.39,6.19 -0.09,0.27 -0.21,0.65 -0.34,1.08 h 14.72 v -8.36 l -1.43,-0.24"
         class="cls-1"
         inkscape:connector-curvature="0"
         style="fill:#990020" />
      <path
         id="path304"
         d="m 24.1,27.74 a 86.17,86.17 0 0 0 2,-12.37 c 0.46,-4.72 0.79,-10.44 0.89,-11 0.1,-0.56 0.66,-1.75 1.5,-1.58 0.84,0.17 0.7,0.87 0.71,1.52 0.01,0.65 -0.35,2.14 -0.52,4.36 -0.17,2.22 -0.67,8.64 -0.92,9.74 a 33.59,33.59 0 0 0 -0.34,3.45 c -0.07,0.53 -0.62,2.19 0,1.87 0.62,-0.32 1.28,-0.54 3.44,-0.56 2.36,0 2.43,0.48 2.63,-0.07 0.2,-0.55 0.73,-3.65 1.17,-6 a 61,61 0 0 0 1.16,-6.75 c 0.07,-1.68 0.2,-3.66 0.57,-4 0.37,-0.34 0.83,-0.39 1.06,0 a 2.19,2.19 0 0 1 0.26,1.23 18.49,18.49 0 0 1 -0.35,4.32 c -0.45,2.26 -0.39,2.09 -0.59,3.32 -0.2,1.23 -0.24,1.42 -0.41,2.46 -0.14,0.88 -0.44,3 -0.56,3.77 -0.12,0.77 -0.47,2.12 -0.26,2.19 a 33.93,33.93 0 0 0 4.18,0.54 V 0 H 5.31 v 17.18 c 0.4,-0.84 0.49,-1.56 0.77,-2.28 0.47,-1.21 1.76,-4.72 1.76,-4.72 0,0 0.67,-1.9 1.92,-2 0.74,0 1.75,0.61 2.32,2 1.25,3.08 1,8.17 0.39,11.5 -0.61,3.33 -0.85,4.21 -0.43,3.84 A 28.72,28.72 0 0 0 14,22.24 c 0.88,-1.44 2.07,-3.8 3.27,-4.78 a 2,2 0 0 1 2.39,-0.35 c 1.44,0.71 1.57,2.82 1.72,3.56 A 32.07,32.07 0 0 1 21,27.34 18.69,18.69 0 0 0 20.57,30.47 c -0.1,1.1 -1,2.09 -2,1.68 -0.84,-0.34 -0.15,-1.83 -0.05,-2.17 a 19,19 0 0 0 1,-5.76 c 0,-2.52 -0.25,-4.46 -0.78,-4.94 -0.53,-0.48 -1.13,0.12 -1.13,0.12 a 34.67,34.67 0 0 0 -2.89,4.8 c -0.62,1.21 -1.71,3.8 -2.38,4.36 -0.67,0.56 -0.79,0.66 -1.16,0.56 -0.37,-0.1 -1.64,-0.22 -1.28,-2 0.36,-1.78 0.4,-4.12 0.68,-5.46 0.34,-1.64 0.36,-10.6 -0.77,-10.71 -1.13,-0.11 -1.41,2.34 -1.68,3.11 -0.54,1.58 -1,3.71 -1.49,4.88 -0.33,0.78 -0.91,2.43 -1.32,3.55 v 12 h 17.2 c 0.38,-1.66 1,-4.46 1.59,-6.8"
         class="cls-1"
         inkscape:connector-curvature="0"
         style="fill:#990020" />
    </g>
  </g>
</svg>
